<svg version="1.1" xmlns="http://www.w3.org/2000/svg" xmlns:xlink="http://www.w3.org/1999/xlink" width="512px" height="512px" viewBox="0,0,256,256"><g fill="#ffffff" fill-rule="nonzero" stroke="none" stroke-width="1" stroke-linecap="butt" stroke-linejoin="miter" stroke-miterlimit="10" stroke-dasharray="" stroke-dashoffset="0" font-family="none" font-weight="none" font-size="none" text-anchor="none" style="mix-blend-mode: normal"><g transform="translate(-0.00059,-0.00075) scale(0.5,0.5)"><g><path d="M399.312,307.764c-16.489,6.853 -33.129,13.478 -49.694,20.102c-15.96,6.327 -32,12.724 -47.886,19.276c-0.603,0.302 -1.28,0.676 -2.034,1.055c-1.503,0.754 -3.312,1.731 -4.514,1.731c-0.603,0 -0.982,-0.228 -1.283,-0.754c-0.901,-1.654 0.379,-5.346 3.842,-11.217c4.367,-7.53 9.033,-14.908 13.628,-22.364l26.276,-42.614c9.411,-15.286 20.481,-33.434 31.172,-52.179l0.677,-1.055l-5.346,-3.537l-0.754,0.978c-16.338,20.254 -31.922,40.581 -49.014,63.169c-3.463,4.518 -6.926,8.963 -10.39,13.478c-10.676,13.742 -21.514,27.89 -30.938,42.985c-2.139,3.368 -4.286,6.739 -6.282,10.225c-1.096,-6.048 -0.956,-12.534 -0.879,-18.798c0,-3.089 0.074,-6.177 0,-9.11c-0.228,-5.647 -0.452,-11.294 -0.754,-16.868c-0.228,-5.345 -0.452,-10.69 -0.602,-16.036l-1.206,-36.066c-0.75,-25.073 -1.956,-50.522 -3.084,-75.142h-7.078c-1.731,25.224 -3.39,51.125 -4.746,77.702l-1.731,33.279c-0.225,5.272 -0.603,10.618 -0.978,15.89c-0.374,5.948 -0.754,11.97 -1.055,17.918c-0.15,2.861 -0.15,5.721 -0.15,8.735c0,5.059 -0.037,10.254 -0.714,15.21c-0.183,1.11 -0.378,2.221 -0.654,3.302c-10.003,-19.588 -22.985,-37.533 -35.598,-54.878c-3.313,-4.595 -6.629,-9.187 -9.864,-13.779c-14.758,-20.856 -30.57,-42.992 -46.908,-64.753l-0.754,-0.978l-5.419,3.313l0.599,1.129c14.306,26.731 29.592,53.533 44.422,79.359l3.39,5.949c2.335,3.989 4.518,8.055 6.776,12.121c2.636,4.82 5.272,9.562 7.982,14.309l0.905,1.43c5.798,9.334 8.206,15.283 7.154,17.54c-0.15,0.302 -0.378,0.681 -1.356,0.905c-0.754,0 -2.559,-1.051 -3.614,-1.732c-0.676,-0.301 -1.206,-0.676 -1.658,-0.827c-3.011,-1.43 -6.099,-2.71 -9.11,-3.992c-6.099,-2.559 -12.122,-5.191 -18.143,-7.905l-14.309,-6.401c-6.85,-3.162 -13.702,-6.246 -20.629,-9.261l-12.272,-5.419c-7.606,-3.39 -15.286,-6.702 -22.89,-10.165l-1.054,-0.526l-3.313,5.419l1.055,0.754c19.874,13.629 40.809,26.129 61.135,38.323l13.405,8.059c12.646,7.68 25.672,15.658 40.054,21.081c2.184,0.754 4.67,1.43 7.306,2.106c6.4,1.735 13.702,3.618 16.863,8.283c1.96,3.01 2.559,7.003 3.162,10.919c0.301,1.805 0.529,3.614 0.982,5.268l0.224,0.982l5.574,0.15l0.302,-0.978c0.448,-1.735 0.75,-3.541 1.051,-5.422c0.677,-3.842 1.357,-7.831 3.463,-10.769c3.313,-4.669 10.768,-6.397 17.32,-7.904c2.71,-0.677 5.268,-1.28 7.452,-2.034c14.081,-4.893 26.955,-12.198 39.455,-19.202c2.633,-1.504 5.269,-3.011 7.905,-4.442l6.401,-3.537c20.554,-11.445 41.786,-23.19 61.893,-36.066l1.051,-0.68l-3.088,-5.496z"></path><path d="M509.77,227.952c-2.864,-4.514 -7.757,-7.15 -12.878,-7.15c-1.882,0 -3.838,0.374 -5.721,1.202c-7.982,3.317 -15.058,6.327 -21.158,8.963c-5.949,2.633 -12.048,5.269 -16.64,7h-0.073c-2.636,-1.882 -5.802,-2.86 -8.886,-2.86c-1.959,0 -3.842,0.375 -5.724,1.129c-1.504,-6.099 -6.698,-10.691 -13.026,-11.368h-0.677c15.21,-12.198 19.952,-18.07 21.158,-19.727c3.838,-5.423 3.687,-12.651 -0.302,-17.919c-2.188,-2.915 -5.327,-4.769 -8.765,-5.496c-0.456,-0.118 -0.897,-0.273 -1.371,-0.354c1.857,-2.478 2.908,-5.466 2.982,-8.61c0.15,-4.29 -1.581,-8.357 -4.515,-11.217c-0.982,-9.11 4.442,-35.842 9.938,-51.728c2.258,-6.548 -0.224,-13.853 -6.099,-17.618c-2.485,-1.581 -5.346,-2.334 -8.132,-2.334c-3.765,0 -7.53,1.357 -10.39,4.14c-6.853,6.478 -13.177,12.727 -19.051,18.448c-7.905,7.758 -17.166,16.941 -23.415,22.062c-1.504,-0.904 -3.162,-1.507 -4.967,-1.809c-0.904,-0.15 -1.735,-0.224 -2.562,-0.224c-5.346,0 -10.39,2.86 -13.099,7.602c-1.43,2.486 -2.636,4.442 -3.765,6.026c-1.43,-0.602 -2.938,-0.982 -4.518,-1.055c-0.452,-0.073 -0.904,-0.073 -1.279,-0.073c-1.912,0 -3.746,0.367 -5.514,1.014c-0.048,0.011 -0.089,0.018 -0.136,0.03c-0.375,-1.956 -1.129,-3.908 -2.331,-5.64c-2.86,-4.217 -7.53,-6.625 -12.422,-6.625c-1.283,0 -2.486,0.15 -3.765,0.526c-1.658,0.378 -3.239,0.603 -4.518,0.603c-0.677,0 -1.129,0 -1.43,-0.074c-0.302,-1.055 -0.378,-3.765 1.279,-7.378c2.184,-5.044 1.504,-10.846 -1.809,-15.21c-2.86,-3.765 -7.301,-5.949 -11.97,-5.949c-0.676,0 -1.43,0 -2.106,0.151c-0.452,0.074 -0.831,0.074 -1.206,0.15c0.224,-1.357 0.526,-2.636 0.676,-3.313c1.133,-5.047 -0.374,-10.316 -4.066,-13.93c-2.861,-2.864 -6.698,-4.368 -10.614,-4.368h-0.529c-0.074,-2.033 0.15,-4.518 0.754,-6.4c1.882,-6.25 -0.526,-13.026 -5.949,-16.714c-3.313,-3.463 -8.283,-19.426 -10.239,-33.282c-1.13,-7.377 -7.458,-12.873 -14.91,-12.873c-7.529,0 -13.853,5.496 -14.908,12.875c-2.033,14.081 -6.926,29.819 -10.316,33.282c-5.422,3.687 -7.83,10.463 -5.948,16.714c0.316,0.992 0.518,2.143 0.636,3.316c0.014,0.996 -0.078,2.04 -0.39,3.084h-0.018c-3.916,0 -7.758,1.504 -10.618,4.368c-3.614,3.614 -5.195,8.882 -4.066,13.93c0.15,0.673 0.449,1.949 0.673,3.294l-0.088,0.007c-0.346,-0.062 -0.695,-0.074 -1.11,-0.139c-0.68,-0.151 -1.357,-0.151 -2.11,-0.151c-4.669,0 -9.11,2.184 -11.97,5.949c-3.313,4.364 -3.993,10.166 -1.809,15.21c1.658,3.614 1.581,6.323 1.279,7.378c-0.224,0.074 -0.75,0.074 -1.43,0.074c-1.279,0 -2.782,-0.225 -4.514,-0.603c-1.283,-0.375 -2.485,-0.526 -3.765,-0.526c-4.897,0 -9.562,2.408 -12.426,6.625c-1.176,1.695 -1.911,3.537 -2.298,5.452c-0.011,0.041 -0.03,0.078 -0.04,0.118c-1.732,-0.676 -3.688,-1.051 -5.644,-1.051c-0.448,0 -0.901,0 -1.353,0.078c-1.581,0.146 -3.088,0.526 -4.441,1.051c-1.133,-1.581 -2.412,-3.537 -3.765,-5.949c-2.714,-4.742 -7.758,-7.602 -13.103,-7.602c-0.827,0 -1.654,0.074 -2.558,0.224c-1.809,0.302 -3.463,0.905 -4.97,1.809c-6.25,-5.194 -15.511,-14.305 -23.415,-22.062c-5.798,-5.721 -12.198,-11.97 -19.051,-18.448c-2.861,-2.783 -6.626,-4.14 -10.39,-4.14c-2.786,0 -5.646,0.754 -8.132,2.334c-5.871,3.765 -8.357,11.07 -6.099,17.618c5.496,15.886 10.919,42.618 9.941,51.728c-2.937,2.86 -4.669,6.926 -4.518,11.217c0.062,2.709 0.978,5.275 2.382,7.492c0.214,0.386 0.338,0.813 0.582,1.18c-3.971,0.537 -7.644,2.563 -10.118,5.861c-3.99,5.272 -4.14,12.5 -0.302,17.846c1.206,1.654 5.945,7.526 21.136,19.706l-0.026,0.022h-0.628c-6.324,0.677 -11.522,5.269 -13.026,11.368c-1.882,-0.827 -3.842,-1.202 -5.798,-1.202c-3.162,0 -6.25,0.978 -8.886,2.86c0,0.074 -0.074,0.074 -0.074,0.074c-4.592,-1.805 -10.618,-4.441 -16.566,-7c-6.099,-2.636 -13.099,-5.646 -21.158,-8.963c-1.882,-0.827 -3.838,-1.202 -5.721,-1.202c-5.121,0 -10.014,2.636 -12.801,7.15c-3.916,6.25 -2.71,14.456 2.86,19.275c16.04,13.93 19.728,23.118 19.956,25.978c-2.787,3.838 -3.614,8.809 -2.184,13.326c1.503,5.045 5.57,8.809 10.618,10.166c2.86,0.677 4.894,1.43 6.397,2.034c-1.129,3.235 -1.202,6.849 0,10.162c1.809,4.897 5.875,8.51 10.919,9.639c4.066,0.905 7.077,1.654 9.261,2.334c-0.378,2.783 0,5.57 1.129,8.206c1.026,2.173 2.588,3.974 4.408,5.43c0.419,0.375 0.783,0.813 1.235,1.147c-8.581,2.93 -20.83,6.463 -39.676,10.816c-7.452,1.654 -12.422,8.735 -11.595,16.338c0.904,7.602 7.305,13.404 14.985,13.404c9.261,0 51.275,8.507 59.481,14.154c2.184,2.258 4.971,3.614 7.905,4.217c-1.129,5.647 1.055,11.592 5.875,15.059c2.636,1.955 5.798,2.934 8.882,2.934c3.239,0 6.552,-1.052 9.265,-3.162c4.666,-3.614 8.96,-5.57 12.195,-5.57c4.445,0 6.474,4.368 6.551,4.368c2.033,5.647 7.228,9.558 13.176,10.011h0.978c5.346,0 10.316,-2.71 13.026,-7.302c2.11,-1.732 10.39,-4.82 21.683,-4.82c2.636,0 5.122,0.15 7.456,0.53c11.669,1.728 21.761,7.15 23.566,10.088c0.978,4.514 3.992,8.279 8.132,10.316c1.43,0.677 2.86,1.129 4.441,1.353c-1.128,5.044 -2.558,9.942 -4.139,14.456c-0.978,2.786 -1.956,4.97 -2.71,6.478c-0.078,0.147 -0.228,0.302 -0.302,0.449c-0.827,1.658 -1.731,3.088 -2.562,4.294c-0.449,0.602 -0.75,0.978 -0.978,1.206c-0.302,0.375 -0.603,0.75 -0.905,1.129l-0.75,0.827c0,0 -0.302,0.302 -0.302,0.375c-2.559,2.937 -4.442,6.551 -5.272,10.393c-2.107,9.412 1.959,19.276 10.088,24.544c3.842,2.408 8.21,3.765 12.728,3.765c9.411,0 17.842,-5.647 21.455,-14.378l0.831,-1.809l0.375,-0.827c0.529,-1.283 1.279,-2.864 1.959,-4.67l0.224,-0.68c0.827,-2.03 1.809,-4.514 2.787,-7.452c0.603,-1.732 1.206,-3.541 1.805,-5.496l0.078,-0.302c0.526,-1.732 1.129,-3.537 1.581,-5.346c2.184,-7.758 3.915,-16.79 5.194,-26.956c0.754,0.078 1.508,0.151 2.258,0.151c2.261,0 4.518,-0.526 6.551,-1.504c4.29,-2.037 7.379,-6.026 8.283,-10.694c1.279,-3.386 13.103,-11.82 23.493,-12.949c0.904,-0.15 1.882,-0.15 2.934,-0.15c11.147,0 23.342,4.816 26.051,7.529c2.714,4.67 7.684,7.53 13.103,7.53h1.054c6.022,-0.452 11.144,-4.367 13.177,-10.088c0,0 2.033,-4.368 6.474,-4.368c3.238,0 7.529,1.956 12.198,5.57c2.71,2.11 6.022,3.162 9.261,3.162c3.162,0 6.25,-0.978 8.886,-2.934c4.817,-3.467 7,-9.412 5.871,-15.059c2.938,-0.603 5.721,-1.959 7.905,-4.217c8.283,-5.647 50.224,-14.154 59.481,-14.154c7.684,0 14.081,-5.802 14.986,-13.404c0.827,-7.603 -4.14,-14.684 -11.596,-16.338c-14.617,-3.378 -25.242,-6.257 -33.294,-8.75c-2.217,-0.717 -4.39,-1.438 -6.375,-2.166c2.442,-1.507 4.449,-3.802 5.636,-6.478c1.129,-2.636 1.582,-5.423 1.129,-8.206c2.184,-0.68 5.198,-1.43 9.261,-2.334c5.048,-1.129 9.188,-4.742 10.919,-9.639c1.206,-3.313 1.129,-6.926 0,-10.162c1.507,-0.603 3.614,-1.357 6.401,-2.034c5.044,-1.357 9.11,-5.121 10.691,-10.166c1.43,-4.518 0.526,-9.489 -2.184,-13.326c0.151,-2.861 3.838,-12.048 19.878,-25.978c5.569,-4.823 6.775,-13.029 2.936,-19.279zM480.859,361.172c-11.533,0.254 -61.775,9.809 -69.65,18.574c-2.106,-0.754 -4.066,-1.129 -5.798,-1.129c-6.555,0 -10.055,5.438 -7.074,15.956c0.232,0.934 0.43,1.842 0.75,2.838c-8.144,-6.309 -15.324,-8.629 -21.309,-8.629c-9.993,0 -16.772,6.603 -19.68,12.136c-0.438,0.776 -0.798,1.526 -1.089,2.239c-4.526,-8.394 -24.231,-14.978 -39.091,-14.978c-1.581,0 -3.162,0.074 -4.592,0.225c-13.996,1.518 -32.599,12.577 -36.125,23.635c-0.166,0.478 -0.452,0.953 -0.558,1.434c-1.426,-0.75 -2.85,-1.276 -4.276,-1.578c-1.129,-0.302 -2.184,-0.452 -3.239,-0.452c-3.915,0 -6.775,2.184 -8.43,7.904c-0.53,1.96 -0.603,2.11 -1.206,6.78c-1.128,9.261 -2.709,17.918 -4.819,25.298c-0.453,1.882 -1.055,3.614 -1.581,5.272c-0.526,1.731 -0.978,3.312 -1.582,4.816c-0.978,3.011 -2.033,5.574 -2.86,7.757c-0.827,2.184 -1.658,3.838 -2.184,5.044c-0.452,1.206 -0.754,1.806 -0.754,1.806c-1.353,3.166 -4.367,5.122 -7.602,5.122c-1.581,0 -3.089,-0.453 -4.518,-1.357c-2.861,-1.806 -4.29,-5.346 -3.614,-8.658c0.375,-1.43 0.978,-2.71 1.882,-3.765l0.302,-0.224c0,0 0.302,-0.452 0.978,-1.206c0.602,-0.827 1.731,-1.882 2.786,-3.463c1.129,-1.654 2.408,-3.614 3.687,-6.099c1.28,-2.408 2.486,-5.346 3.691,-8.658c2.258,-6.474 4.442,-14.456 5.949,-23.191c0.754,-4.367 -0.302,-12.724 -6.401,-12.948h-0.228c-1.85,0 -5.004,0.746 -6.941,1.654c-0.118,0.044 -0.258,0.088 -0.368,0.132c-2.279,-11.51 -21.459,-19.558 -35.985,-21.742c-3.085,-0.448 -6.397,-0.676 -9.714,-0.676c-12.867,0 -26.238,3.404 -32.301,9.176c-0.114,0.106 -0.265,0.198 -0.375,0.306c-0.03,0.033 -0.048,0.07 -0.077,0.099c-0.802,0.794 -1.471,1.639 -1.993,2.533c-2.07,-5.798 -9.202,-14.371 -20.669,-14.371c-4.633,0 -9.993,1.43 -15.949,4.982c-1.79,1.026 -3.61,2.228 -5.452,3.57c4.558,-12.371 0.886,-18.717 -6.232,-18.717c-1.731,0 -3.687,0.375 -5.798,1.129c-6.029,-6.71 -36.867,-13.89 -56.216,-17c-5.901,-0.982 -10.702,-1.588 -13.474,-1.71c43.992,-10.173 53.764,-16.39 62.536,-19.915c8.158,-3.25 6.93,-12.132 -12.882,-17.007c-0.066,-0.014 -0.137,-0.033 -0.202,-0.051c-0.934,-0.228 -1.919,-0.438 -2.934,-0.647c-0.854,-0.184 -1.637,-0.386 -2.552,-0.562c5.371,-8.794 3.261,-13.242 -17.169,-18.143c-1.18,-0.302 -2.368,-0.603 -3.677,-0.912c5.79,-7.529 4.103,-15.518 -13.738,-20.812c-1.03,-0.324 -2.081,-0.643 -3.198,-0.949c4.724,-5.53 4.882,-17.286 -10.158,-34.346c-3.173,-3.665 -7.026,-7.558 -11.636,-11.669c27.085,11.279 42.867,19.187 49.085,19.187c2.526,0 3.426,-1.382 2.974,-4.261c-0.018,-0.283 0.004,-0.493 -0.029,-0.812c8.687,5.158 15.066,7.408 19.268,7.408c3.875,0 5.676,-2.034 5.584,-5.317c0.022,-0.386 0.089,-0.717 0.078,-1.15c19.765,19.003 36.966,31.915 46.29,31.915c2.408,0 4.29,-0.901 5.573,-2.71c6.173,-8.886 -9.338,-20.404 -20.029,-24.846c-8.64,-3.618 -27.302,-11.669 -33.948,-14.544c-1.166,-0.529 -1.912,-0.886 -2.228,-1.062c17.268,-1.738 36.098,-5.312 15.319,-21.29c-13.856,-10.606 -20.393,-16.842 -23.261,-19.89c-1.04,-1.183 -1.507,-1.871 -1.555,-2.114c1.846,0.595 9.173,2.956 15.93,2.956c3.915,0 7.606,-0.754 9.79,-3.162c3.003,-9.401 -9.651,-19.746 -14.327,-22.942c-0.754,-0.537 -1.298,-0.901 -1.559,-1.058c8.898,-3.658 2.706,-34.974 -2.529,-54.591c-1.368,-5.236 -2.662,-9.695 -3.603,-12.629c27.676,26.268 46.959,47.926 55.522,47.926c1.982,0 3.368,-1.246 4.187,-3.757c0.195,-0.5 0.386,-1.018 0.548,-1.629c7.65,13.39 14.026,18.636 18.081,18.636c2.154,0 3.606,-1.57 4.198,-4.166c0.166,-0.566 0.302,-1.177 0.394,-1.846c3.434,15 6.503,23.254 10.239,23.254c1.731,0 3.573,-1.724 5.632,-5.173c0.456,-0.706 0.915,-1.422 1.408,-2.283c8.952,39.724 20.452,57.602 26.768,57.602c0.603,0 1.129,-0.15 1.581,-0.452c5.798,-3.537 7.154,-40.434 -8.434,-49.316c1.129,-8.077 -11.25,-26.934 -15.463,-33.073c-0.684,-1.044 -1.125,-1.728 -1.268,-1.99c3.029,0.802 5.702,1.103 8.146,1.103c3.177,0 5.754,-0.721 8.004,-1.768c0.103,-0.048 0.217,-0.089 0.32,-0.136c1.084,-0.537 2.048,-1.173 2.915,-1.916c0.096,-0.081 0.187,-0.165 0.283,-0.25c5.544,-5.007 6.43,-13.949 3.011,-22.838c-0.202,-0.566 -0.302,-1.129 -0.537,-1.694c2.982,0.367 5.522,0.592 7.691,0.592c12.89,0 12.687,-7.265 10.051,-19.588c-0.151,-0.783 -0.269,-1.49 -0.434,-2.313c1.482,0.29 2.823,0.445 4.007,0.445c0.669,0 1.154,-0.235 1.75,-0.323c0.405,-0.055 0.802,-0.122 1.18,-0.218c1.32,-0.349 2.467,-0.897 3.438,-1.654c0.089,-0.07 0.191,-0.121 0.28,-0.194c6.081,-5.122 5.408,-17.504 3.518,-23.812c9.29,-6.133 14.463,-30.651 16.118,-39.923c0.32,-1.625 0.534,-2.735 0.651,-3.254c0.518,3.442 5.68,35.974 16.588,43.177c-1.886,6.308 -2.562,18.69 3.518,23.812c0.088,0.074 0.191,0.125 0.283,0.194c0.966,0.758 2.114,1.306 3.434,1.654c0.378,0.096 0.779,0.162 1.18,0.218c0.599,0.088 1.081,0.323 1.75,0.323c0.798,0 1.764,-0.169 2.694,-0.302c0.438,-0.033 0.868,-0.07 1.36,-0.106c-3.077,13.75 -4.114,21.864 9.574,21.864c1.79,0 3.908,-0.181 6.246,-0.442c0.504,-0.03 0.945,-0.058 1.482,-0.088c-4.184,9.397 -3.448,19.154 2.434,24.47c0.096,0.085 0.191,0.169 0.287,0.25c0.867,0.743 1.827,1.379 2.912,1.916c0.102,0.047 0.217,0.088 0.323,0.136c2.25,1.047 4.823,1.768 8,1.768c1.89,0 3.978,-0.261 6.198,-0.71c0.662,-0.102 1.309,-0.18 2,-0.302c-0.901,1.262 -18.103,25.507 -16.783,34.97c-15.584,8.882 -14.231,45.779 -8.434,49.316c0.452,0.302 0.982,0.452 1.585,0.452c4.993,0 13.22,-11.228 20.874,-35.533c0.195,-0.61 0.39,-1.198 0.581,-1.823c0.096,-0.313 0.191,-0.64 0.287,-0.956c1.739,-5.698 3.466,-12.081 5.143,-19.294c2.599,5.081 4.908,7.459 6.919,7.459c2.993,0 5.562,-5.364 8.228,-15.177c0.687,-2.386 1.393,-5.003 2.143,-8.022c0.246,3.677 1.846,5.956 4.463,5.956c3.551,0 8.89,-4.03 15.305,-14.041c0.949,-1.426 1.908,-2.934 2.878,-4.558c0.695,3.647 2.254,5.349 4.629,5.349c7.949,0 25.143,-18.669 49.702,-42.356c1.955,-1.827 3.853,-3.636 5.93,-5.496c-4.238,12.404 -16.022,56.768 -8.014,65.87c0.503,0.614 1.095,1.066 1.768,1.375c-1.662,0.728 -19.374,12.963 -15.878,23.901c2.258,2.408 5.871,3.162 9.787,3.162c5.349,0 11.07,-1.489 14.15,-2.408c0.702,-0.184 1.323,-0.316 2.074,-0.53c-0.82,1.095 -6.191,7.507 -25.11,21.985c-18.53,14.25 -5.555,18.625 9.714,20.643c1.838,0.276 3.698,0.534 5.566,0.769c-2.334,1.007 -26.044,11.261 -36.136,15.485c-10.69,4.442 -26.202,15.96 -20.025,24.846c1.279,1.809 3.162,2.71 5.57,2.71c7.514,0 20.235,-8.47 35.18,-21.673c3.558,-3.099 7.25,-6.419 11.198,-10.162c-0.589,3.96 1.272,6.386 5.574,6.386c3.492,0 8.566,-1.658 15.132,-5.136c1.364,-0.691 2.728,-1.375 4.206,-2.199c-0.776,3.442 0.125,5 2.875,5c5.948,0 20.426,-7.102 44.915,-17.404c1.415,-0.558 2.842,-1.118 4.334,-1.68c-24.919,21.775 -27.434,37.01 -23.018,44.411c0.313,0.559 0.658,1.085 1.048,1.57c-20.397,5.151 -22.922,13.379 -17.206,21.191c0.125,0.191 0.206,0.371 0.342,0.562c-23.401,5.14 -26.438,9.511 -21.25,18.397c0.121,0.225 0.194,0.416 0.323,0.651c-25.254,4.449 -27.43,14.676 -18.551,18.213c7.35,2.926 15.323,7.717 42.978,15.074c5.64,1.543 12.07,3.193 19.522,4.98z"></path></g></g></g></svg>