<svg version="1.1" xmlns="http://www.w3.org/2000/svg" xmlns:xlink="http://www.w3.org/1999/xlink" width="512px" height="512px" viewBox="0,0,256,256"><g fill="#ffffff" fill-rule="nonzero" stroke="none" stroke-width="1" stroke-linecap="butt" stroke-linejoin="miter" stroke-miterlimit="10" stroke-dasharray="" stroke-dashoffset="0" font-family="none" font-weight="none" font-size="none" text-anchor="none" style="mix-blend-mode: normal"><g transform="translate(0,0.0005) scale(0.5,0.5)"><g><path d="M304.199,260.14c-4.848,0 -9.274,2.621 -11.676,6.722h-16.343l-8.274,-0.07l12.285,-21.286c4.805,-0.027 9.27,-2.606 11.664,-6.75c3.742,-6.481 1.512,-14.798 -4.969,-18.535c-2.062,-1.192 -4.406,-1.821 -6.777,-1.821c-4.84,0 -9.344,2.598 -11.762,6.786c-2.422,4.199 -2.367,9.343 -0.012,13.473l-8.195,14.195l-4.176,7.09l-12.293,-21.285c2.351,-4.133 2.41,-9.278 -0.012,-13.473c-2.418,-4.188 -6.926,-6.79 -11.762,-6.79c-2.371,0 -4.715,0.63 -6.778,1.825c-3.14,1.812 -5.382,4.738 -6.324,8.238c-0.938,3.5 -0.457,7.161 1.355,10.298c2.395,4.144 6.856,6.722 11.661,6.75l8.258,14.293l4,7.062h-24.59c-2.402,-4.102 -6.825,-6.722 -11.672,-6.722c-7.481,0 -13.57,6.086 -13.57,13.57c0,7.484 6.09,13.574 13.57,13.574c4.847,0 9.27,-2.622 11.672,-6.726h16.582l8.047,0.07l-12.297,21.286c-4.805,0.027 -9.266,2.606 -11.657,6.746c-3.742,6.48 -1.519,14.797 4.965,18.542c2.062,1.188 4.406,1.821 6.774,1.821c4.84,0 9.348,-2.602 11.762,-6.786c2.426,-4.199 2.371,-9.344 0.016,-13.477l8.25,-14.285l4.126,-7l12.289,21.285c-2.355,4.133 -2.41,9.274 0.012,13.473c2.418,4.188 6.922,6.79 11.762,6.79c2.371,0 4.714,-0.633 6.777,-1.821c6.481,-3.738 8.711,-12.058 4.969,-18.542c-2.394,-4.141 -6.859,-6.719 -11.664,-6.746l-8.195,-14.195l-4.05,-7.16h24.578c2.402,4.105 6.828,6.726 11.676,6.726c7.484,0 13.57,-6.09 13.57,-13.574c-0.001,-7.484 -6.088,-13.571 -13.572,-13.571z"></path><path d="M511.926,209.426l0.074,-0.126l-29,-5.625l-1.11,-0.215l-0.43,-0.14l1.058,-1.133l14.848,-15.91l5.25,-5.558l-0.042,-0.02l0.102,-0.109l-27.074,-11.829c-22.718,-9.922 -50.68,-15.617 -76.711,-15.617c-18.297,0 -35.871,2.695 -52.222,8.008c-2.094,0.679 -4.16,1.457 -6.234,2.226c-0.778,0.262 -1.512,0.515 -2.309,0.774c0.176,-3.012 0.266,-6.02 0.266,-9.012c0,-49.586 -24.324,-94.645 -47.086,-120.278l-14.654,-16.502l-4.835,-5.516l-0.024,0.043l-0.098,-0.11l-14.312,25.84l-0.547,0.988l-0.266,0.363l-0.75,-1.347l-10.578,-19.118l-3.626,-6.637l-0.031,0.035l-0.07,-0.125l-19.618,22.086c-22.762,25.63 -47.086,70.688 -47.086,120.278c0,2.457 0.125,4.93 0.242,7.398c0.016,0.938 0.028,1.832 0.039,2.793c-3.222,-1.289 -6.477,-2.469 -9.75,-3.535c-16.352,-5.308 -33.922,-8.003 -52.227,-8.003c-26.031,0 -53.992,5.691 -76.714,15.617l-20.043,8.758l-6.926,2.973l0.035,0.039l-0.137,0.058l20.156,21.598l0.774,0.825l0.266,0.367l-1.523,0.293l-21.367,4.144l-7.516,1.41l0.024,0.043l-0.144,0.027l14.953,25.481c17.348,29.574 52.688,66.629 99.84,81.949c2.114,0.684 4.27,1.282 6.426,1.879c0.758,0.238 1.477,0.457 2.246,0.71c-1.914,2.336 -3.75,4.715 -5.512,7.141c-29.144,40.11 -35.949,90.859 -32.605,124.977l2.164,22.054l0.664,7.219l0.042,-0.02l0.016,0.145l26.766,-12.492l1.012,-0.473l0.441,-0.145l-0.191,1.535l-3.613,29.317l28.855,-6.34c33.484,-7.359 79.645,-29.52 108.789,-69.629c1.489,-2.047 2.871,-4.18 4.262,-6.309c0.562,-0.805 1.106,-1.574 1.684,-2.394c1.75,2.75 3.574,5.438 5.473,8.054c29.148,40.118 75.312,62.274 108.797,69.633l21.542,4.73l7.168,1.626l-0.003,-0.051l0.144,0.031l-3.613,-29.316l-0.141,-1.13v-0.441l1.398,0.652l19.515,9.11l7.114,3.375l0.004,-0.051l0.137,0.062l2.882,-29.398c3.348,-34.117 -3.461,-84.867 -32.602,-124.98c-1.281,-1.766 -2.648,-3.477 -4.011,-5.196c-0.496,-0.671 -0.981,-1.308 -1.481,-2c2.922,-0.766 5.805,-1.613 8.653,-2.534c47.156,-15.321 82.492,-52.375 99.839,-81.95l11.172,-19.043l3.746,-6.297zM405.805,449.375l-22.981,-10.73l-12.504,-5.918l0.008,0.086l-0.148,-0.07l3.625,29.434l1.141,9.625c-26.898,-5.918 -69.36,-24.378 -96.317,-61.484c-8.062,-11.102 -14.098,-23.004 -18.539,-34.973c-1.426,-3.95 -2.734,-7.977 -3.859,-12.129c-0.015,0.066 -0.043,0.125 -0.058,0.187c-0.023,-0.074 -0.055,-0.148 -0.074,-0.222c-4.55,16.176 -11.778,32.722 -22.722,47.785c-23.547,32.414 -58.922,50.59 -85.426,58.618c-3.762,1.117 -7.426,2.074 -10.926,2.824l4.805,-39.015l-26.977,12.594l-8.699,4.011c-2.679,-27.41 1.758,-73.5 28.715,-110.602c7.785,-10.718 16.871,-19.863 26.5,-27.613c3.18,-2.512 6.469,-4.942 9.918,-7.242c-0.062,0 -0.129,0 -0.195,0.004c0.066,-0.047 0.129,-0.102 0.192,-0.145c-1.422,0.035 -2.852,0.055 -4.286,0.055c-14.82,0 -30.375,-1.973 -45.746,-6.965c-38.786,-12.602 -67.309,-41.406 -82.966,-64.336c-1.902,-2.817 -3.675,-5.606 -5.25,-8.317l25.172,-4.878l13.328,-2.508l-0.058,-0.066l0.16,-0.031l-20.548,-22.018l-6.273,-6.785c16.347,-7.133 41.058,-13.852 68.3,-13.852c14.821,0 30.395,1.993 45.766,6.985c13.226,4.297 25.254,10.488 35.996,17.683c3.511,2.398 6.98,4.938 10.363,7.684c-0.024,-0.062 -0.039,-0.125 -0.062,-0.188c0.062,0.047 0.129,0.09 0.191,0.141c-5.797,-15.73 -9.653,-33.305 -9.653,-51.863c0,-40.461 18.29,-76.262 35.153,-98.281c2.222,-2.871 4.461,-5.586 6.687,-8.066l12.309,22.234l6.61,12.094l0.042,-0.078l0.078,0.145l14.305,-25.832l4.801,-8.57c18.281,20.602 41.778,60.496 41.778,106.355c0,13.246 -1.973,25.985 -5.207,37.91c-1.094,3.902 -2.328,7.805 -3.766,11.691c0.05,-0.035 0.102,-0.07 0.152,-0.106c-0.023,0.07 -0.043,0.149 -0.066,0.219c12.774,-9.79 27.68,-18.34 44.531,-23.821c15.375,-4.992 30.942,-6.98 45.766,-6.98c23.734,0 45.547,5.102 61.582,11.133c0.179,0.07 0.371,0.14 0.546,0.21c1.434,0.547 2.754,1.102 4.09,1.661c0.699,0.301 1.504,0.633 2.09,0.902l-17.594,18.852l-9.207,9.758l0.086,0.016l-0.113,0.121l29.129,5.649l9.492,1.886c-13.942,23.75 -44.621,58.43 -88.238,72.598c-15.367,4.996 -30.918,6.965 -45.738,6.965c-0.782,0 -1.551,-0.019 -2.329,-0.027c-0.629,-0.047 -1.281,-0.012 -1.882,-0.141c0.054,0.039 0.102,0.078 0.156,0.118c-0.078,0 -0.156,0 -0.234,-0.004c13.254,9.125 25.996,20.656 36.41,34.996c24.09,33.156 30.176,73.446 29.293,101.211c-0.125,3.252 -0.316,6.42 -0.625,9.416z"></path></g></g></g></svg>