<svg version="1.1" xmlns="http://www.w3.org/2000/svg" xmlns:xlink="http://www.w3.org/1999/xlink" width="512px" height="512px" viewBox="0,0,256,256"><g fill="#ffffff" fill-rule="nonzero" stroke="none" stroke-width="1" stroke-linecap="butt" stroke-linejoin="miter" stroke-miterlimit="10" stroke-dasharray="" stroke-dashoffset="0" font-family="none" font-weight="none" font-size="none" text-anchor="none" style="mix-blend-mode: normal"><g transform="scale(0.5,0.5)"><g><path d="M63.898,354.135c5.578,3.21 11.23,6.305 16.981,9.242c0.164,0.082 0.316,0.179 0.48,0.262l0.012,-0.02c2.379,1.211 4.781,2.379 7.191,3.543c0.008,0.004 0.02,0.008 0.027,0.016c6.309,3.042 12.707,5.918 19.195,8.621c0.07,0.031 0.145,0.058 0.215,0.09c6.43,2.672 12.938,5.184 19.535,7.52c0.074,0.023 0.145,0.05 0.218,0.078c6.426,2.266 12.934,4.359 19.512,6.29c0.652,0.191 1.309,0.37 1.961,0.558c6.29,1.812 12.633,3.488 19.047,4.984c0.246,0.059 0.492,0.126 0.738,0.184c6.465,1.492 13.004,2.797 19.586,3.961c1.121,0.199 2.246,0.379 3.371,0.57c6.402,1.07 12.844,2.027 19.348,2.781c0.164,0.02 0.324,0.043 0.484,0.063c6.578,0.754 13.218,1.293 19.89,1.71c1.406,0.086 2.817,0.164 4.226,0.238c6.63,0.34 13.29,0.574 20.004,0.574c0.024,0 0.055,0 0.078,0c0.031,0 0.054,0 0.086,0c6.711,0 13.371,-0.234 20,-0.574c1.41,-0.074 2.821,-0.152 4.227,-0.238c6.671,-0.418 13.312,-0.957 19.89,-1.71c0.164,-0.02 0.32,-0.043 0.484,-0.063c6.504,-0.754 12.946,-1.71 19.348,-2.781c1.125,-0.191 2.25,-0.371 3.371,-0.57c6.586,-1.164 13.117,-2.469 19.586,-3.961c0.25,-0.058 0.492,-0.125 0.742,-0.184c6.41,-1.496 12.754,-3.172 19.039,-4.984c0.656,-0.188 1.312,-0.367 1.965,-0.558c6.578,-1.93 13.082,-4.024 19.512,-6.29c0.07,-0.027 0.144,-0.054 0.218,-0.078c6.594,-2.336 13.106,-4.848 19.535,-7.52c0.07,-0.031 0.145,-0.058 0.214,-0.09c6.493,-2.703 12.891,-5.578 19.196,-8.621c0.007,-0.008 0.019,-0.012 0.031,-0.016h-0.004c2.41,-1.164 4.812,-2.332 7.191,-3.543l0.008,0.02c0.164,-0.082 0.32,-0.18 0.484,-0.262c5.75,-2.938 11.402,-6.032 16.981,-9.242c1.094,-0.629 2.179,-1.27 3.266,-1.906c5.57,-3.282 11.082,-6.645 16.473,-10.187l-186.801,-323.681h-0.156h-49.758h-0.164l-186.797,323.68c5.383,3.542 10.898,6.906 16.469,10.187c1.085,0.637 2.172,1.278 3.265,1.907zM249.442,50.361h13.117l158.941,275.391l2.879,5c-2.047,1.122 -4.047,2.184 -5.996,3.195l-2.266,1.153c-1.613,0.82 -3.234,1.621 -4.863,2.41l-5.203,1.777l-1.343,1.344c-4.226,1.961 -8.512,3.847 -12.79,5.625l-0.031,0.016l-0.414,0.168l-0.122,0.054c-5.714,2.367 -11.496,4.59 -17.191,6.618l-0.55,0.179l-0.469,0.18c-5.672,1.992 -11.527,3.871 -17.414,5.602l-0.871,0.246l-0.949,0.27c-6,1.73 -11.871,3.266 -17.485,4.578l-0.621,0.156c-5.687,1.309 -11.562,2.496 -17.992,3.633l-1.782,0.305l-1.27,0.211c-6.535,1.094 -12.343,1.93 -17.84,2.566l-0.519,0.066c-5.426,0.617 -11.344,1.125 -18.035,1.542l-3.914,0.223c-7.082,0.363 -12.918,0.531 -18.528,0.531c-5.449,0 -11.285,-0.168 -18.32,-0.531l-3.91,-0.219c-6.808,-0.426 -12.777,-0.938 -17.878,-1.519l-0.535,-0.07l-0.278,-0.036c-5.41,-0.625 -11.218,-1.461 -17.66,-2.539l-1.363,-0.226l-1.805,-0.309c-6.434,-1.137 -12.309,-2.324 -17.656,-3.558l-0.668,-0.168l-0.305,-0.07c-5.645,-1.316 -11.352,-2.809 -17.481,-4.574l-0.957,-0.273l-0.832,-0.238c-5.996,-1.758 -11.938,-3.672 -17.668,-5.688l-0.66,-0.242l-0.234,-0.074c-5.664,-2.016 -11.43,-4.238 -17.149,-6.61l-0.156,-0.066l-0.34,-0.141c-0.293,-0.121 -0.586,-0.262 -0.879,-0.386l134.782,-233.289c1.328,-2.297 0.543,-5.23 -1.754,-6.555c-2.298,-1.328 -5.231,-0.542 -6.559,1.754l-135.308,234.198c-1.02,-0.461 -2.055,-0.879 -3.07,-1.352l-0.23,-0.23l-4.958,-2.23c-2.078,-1.004 -4.148,-2.012 -6.203,-3.058l-1.808,-0.918c-2.094,-1.082 -4.199,-2.203 -6.336,-3.367c-0.039,-0.027 -0.074,-0.042 -0.118,-0.066z"></path><path d="M491.078,382.252l-1.133,-1.988c0,0 -0.004,0.004 -0.008,0.004l-0.078,-0.137c-67.297,43.832 -147.734,69.23 -233.781,69.23c-84.262,0 -163.114,-24.406 -229.551,-66.711c-1.363,-0.871 -2.746,-1.695 -4.102,-2.582v0.008c-0.046,-0.032 -0.094,-0.059 -0.137,-0.086l-22.288,38.668c73.953,47.523 161.914,74.981 256.078,74.981c94.164,0 181.984,-27.458 255.922,-74.981z"></path><path d="M279.023,248.236c6.5,0 11.61,-4.699 11.61,-13.825c0,-9.262 -5.11,-22.531 -11.61,-22.531c-6.359,0 -11.476,13.27 -11.476,22.531c0,9.126 5.117,13.825 11.476,13.825z"></path><path d="M226.664,295.845c-6.359,0 -11.477,13.137 -11.477,22.399c0,9.262 5.118,13.824 11.477,13.824c6.5,0 11.61,-4.562 11.61,-13.824c0,-9.262 -5.11,-22.399 -11.61,-22.399z"></path><path d="M336.125,313.959c6.359,0 11.61,-4.562 11.61,-13.824c0,-9.125 -5.25,-22.398 -11.61,-22.398c-6.36,0 -11.609,13.274 -11.609,22.398c0,9.261 5.25,13.824 11.609,13.824z"></path></g></g></g></svg>