<!--?xml version="1.0" encoding="utf-8"?-->
<!-- Generator: Adobe Illustrator 18.1.1, SVG Export Plug-In . SVG Version: 6.00 Build 0)  -->

<svg version="1.1" id="_x31_0" xmlns="http://www.w3.org/2000/svg" xmlns:xlink="http://www.w3.org/1999/xlink" x="0px" y="0px" viewBox="0 0 512 512" style="width: 256px; height: 256px; opacity: 1;" xml:space="preserve">
<style type="text/css">
	.st0{fill:#374149;}
</style>
<g>
	<path class="st0" d="M256,278.813c-10.449,0-18.918,8.472-18.918,18.922c0,10.446,8.469,18.914,18.918,18.914
		c10.45,0,18.918-8.469,18.918-18.914C274.918,287.285,266.45,278.813,256,278.813z" style="fill: rgb(75, 75, 75);"></path>
	<path class="st0" d="M256,333.742c-10.449,0-18.918,8.473-18.918,18.922c0,10.446,8.469,18.914,18.918,18.914
		c10.45,0,18.918-8.469,18.918-18.914C274.918,342.215,266.45,333.742,256,333.742z" style="fill: rgb(75, 75, 75);"></path>
	<path class="st0" d="M284.817,173.106c0.023-0.055,0.058-0.102,0.082-0.16c-12.77,0-25.539,0-38.309,0c-1.816,0-3.629,0-5.445,0
		c-4.254,0-8.602-0.176-12.84-0.016c-0.348-0.015-0.722-0.004-1.05-0.035c0.003,0.02,0.015,0.031,0.023,0.051
		c-0.058,0-0.118-0.004-0.176,0c3.07,9.133,10.508,16.461,19.695,19.374c10.149,3.219,21.508,0.778,29.454-6.304
		c3.285-2.93,5.625-6.61,7.41-10.566c0.387-0.801,0.902-1.508,1.238-2.344H284.817z" style="fill: rgb(75, 75, 75);"></path>
	<path class="st0" d="M292.023,95.422c-7.457,0-13.484,6.031-13.484,13.489c0,7.453,6.027,13.507,13.484,13.507
		c7.458,0,13.508-6.054,13.508-13.507C305.531,101.453,299.481,95.422,292.023,95.422z" style="fill: rgb(75, 75, 75);"></path>
	<path class="st0" d="M233.461,108.91c0-7.458-6.054-13.489-13.511-13.489c-7.458,0-13.481,6.031-13.481,13.489
		c0,7.453,6.023,13.507,13.481,13.507C227.406,122.418,233.461,116.363,233.461,108.91z" style="fill: rgb(75, 75, 75);"></path>
	<path class="st0" d="M256.016,160.047c12.062,0,21.878-9.817,21.878-21.879c0-12.058-9.816-21.875-21.878-21.875
		c-12.094,0-21.91,9.817-21.91,21.875C234.106,150.23,243.922,160.047,256.016,160.047z M249.68,124.226
		c4.418,0,8.039,3.622,8.039,8.039c0,4.453-3.622,8.074-8.039,8.074c-4.454,0-8.078-3.622-8.078-8.074
		C241.602,127.848,245.226,124.226,249.68,124.226z" style="fill: rgb(75, 75, 75);"></path>
	<path class="st0" d="M360.176,219.246c23.246-28.458,33.816-65.118,29.145-102.211C381.684,56.457,332.074,7.594,271.355,0.851
		C266.258,0.289,261.102,0,256.02,0c-74.102,0-134.387,60.285-134.387,134.39c0,31.157,10.656,60.883,30.219,84.821
		c-38.29,31.214-60.848,78.21-60.848,127.793c0,48.66,21.324,94.606,58.488,126.039c14.145,12.004,30.122,21.449,47.489,28.082
		C215.871,508.34,235.726,512,256,512c20.336,0,40.222-3.66,59.153-10.89c17.312-6.66,33.262-16.118,47.378-28.094
		c37.156-31.434,58.465-77.364,58.465-126.012C420.996,297.442,398.45,250.461,360.176,219.246z M210.176,466.574
		c-13.45-5.133-25.813-12.446-36.774-21.746c-28.863-24.414-45.418-60.07-45.418-97.824c0-41.301,20.202-80.297,54.042-104.309
		c6.418-4.546,10.52-11.645,11.258-19.477c0.75-7.882-1.981-15.687-7.481-21.414c-17.535-18.242-27.187-42.184-27.187-67.414
		c0-53.71,43.695-97.41,97.402-97.41c3.718,0,7.507,0.21,11.254,0.629c43.934,4.878,79.832,40.226,85.351,84.046
		c3.734,29.641-5.894,58.867-26.406,80.184c-5.5,5.71-8.231,13.504-7.493,21.375c0.734,7.839,4.836,14.945,11.254,19.5
		c33.836,24.019,54.035,63.003,54.035,104.289c0,37.746-16.539,73.386-45.387,97.793c-10.961,9.297-23.324,16.633-36.714,21.778
		C272.656,477.75,239.558,477.801,210.176,466.574z" style="fill: rgb(75, 75, 75);"></path>
</g>
</svg>
